<?xml version="1.0" standalone="no"?>
<!DOCTYPE svg PUBLIC "-//W3C//DTD SVG 20010904//EN"
 "http://www.w3.org/TR/2001/REC-SVG-20010904/DTD/svg10.dtd">
<svg version="1.0" xmlns="http://www.w3.org/2000/svg"
 width="512.000000pt" height="512.000000pt" viewBox="0 0 512.000000 512.000000"
 preserveAspectRatio="xMidYMid meet">
<metadata>
Created by potrace 1.11, written by Peter Selinger 2001-2013
</metadata>
<g transform="translate(0.000000,512.000000) scale(0.100000,-0.100000)"
fill="#000000" stroke="none">
<path d="M1844 4364 c-138 -24 -269 -68 -422 -142 -24 -11 -67 -24 -95 -27
-29 -4 -55 -9 -58 -11 -11 -7 -145 -18 -214 -18 -85 -1 -157 30 -294 124 -48
33 -93 60 -99 60 -27 0 -27 -36 2 -181 l29 -151 -65 -62 c-35 -33 -93 -88
-129 -120 -35 -33 -96 -89 -135 -125 -39 -36 -119 -111 -179 -166 -59 -55
-125 -117 -145 -137 l-37 -37 -1 -147 0 -148 28 -27 c34 -35 147 -70 232 -72
104 -3 111 2 157 98 27 58 46 85 58 86 30 2 72 1 238 -5 124 -5 173 -3 216 9
75 19 138 58 172 106 97 135 56 366 -80 446 -83 48 -208 23 -270 -57 -17 -21
-17 2 1 45 17 40 83 91 139 106 103 28 267 4 337 -49 76 -57 100 -113 100
-232 0 -144 -53 -265 -159 -359 -137 -122 -217 -210 -291 -320 -64 -95 -160
-305 -175 -380 -1 -9 -8 -36 -15 -61 -30 -109 -39 -204 -35 -350 2 -74 6 -146
9 -160 29 -154 50 -217 111 -347 85 -182 254 -388 410 -504 33 -24 62 -47 63
-51 2 -5 8 -8 12 -8 5 0 28 -13 52 -29 140 -92 370 -183 528 -207 19 -3 41 -7
48 -9 7 -3 50 -7 95 -11 133 -9 171 -12 197 -18 29 -7 77 -13 177 -21 74 -6
113 4 113 29 0 25 -25 34 -121 40 -237 14 -459 91 -664 229 -81 55 -107 77
-203 176 -168 172 -296 410 -341 634 -19 94 -21 111 -27 185 -6 72 -6 73 18
68 19 -5 284 -59 353 -72 11 -2 57 -11 102 -21 l81 -17 7 -43 c15 -104 105
-305 164 -370 l28 -31 -60 -94 c-116 -180 -109 -168 -91 -175 9 -3 33 7 60 26
25 17 49 31 53 31 5 0 11 4 13 8 2 4 31 26 66 49 l62 42 27 -25 c87 -80 295
-181 409 -198 20 -3 25 -15 49 -136 10 -47 21 -98 26 -115 4 -16 10 -43 13
-60 3 -24 27 -133 40 -190 1 -5 6 -25 10 -43 10 -44 28 -36 42 19 12 44 59
267 69 324 2 17 11 62 20 100 8 39 15 73 15 78 0 4 10 7 23 7 12 0 66 11 119
24 108 27 238 88 317 147 l53 40 31 -24 c18 -12 63 -42 101 -66 100 -63 105
-45 22 79 l-67 101 24 19 c36 28 117 155 153 239 18 42 43 117 55 166 13 50
23 91 24 92 1 2 22 7 46 12 136 28 312 64 363 76 l58 14 -6 -92 c-5 -75 -23
-177 -50 -277 -13 -46 -61 -161 -98 -232 -210 -404 -629 -676 -1085 -704 -94
-6 -123 -16 -123 -46 0 -30 153 -31 290 -2 34 7 89 12 190 18 47 3 96 8 110
11 14 3 47 10 74 15 141 28 317 96 451 174 55 32 127 78 135 86 3 3 25 21 50
39 79 59 236 227 294 314 98 147 181 336 201 459 3 18 10 56 15 83 10 49 8
340 -3 381 -3 12 -8 39 -11 60 -10 62 -64 228 -100 307 -87 190 -208 345 -403
516 -65 57 -106 126 -137 229 -22 77 -17 213 12 268 41 80 128 131 241 143
161 16 274 -31 316 -131 9 -22 11 -38 5 -38 -5 0 -10 4 -10 10 0 15 -82 67
-120 75 -87 19 -158 -5 -213 -73 -103 -130 -94 -331 19 -431 83 -73 160 -84
501 -71 62 2 96 0 106 -8 8 -7 25 -39 37 -71 31 -83 54 -102 127 -104 96 -2
217 28 263 65 24 20 25 24 27 175 l3 155 -48 47 c-27 25 -73 69 -103 96 -30
28 -110 102 -179 166 -69 64 -139 129 -156 145 -217 199 -206 186 -199 224 4
19 9 45 11 56 2 12 13 65 24 119 20 96 17 125 -12 125 -5 0 -48 -27 -96 -59
-48 -33 -116 -74 -152 -93 -59 -30 -72 -33 -150 -32 -92 1 -143 6 -235 23 -95
17 -97 18 -153 46 -106 51 -240 100 -307 111 -16 3 -44 10 -62 15 -37 12 -172
16 -223 6 -138 -25 -254 -107 -351 -249 -63 -91 -82 -150 -82 -248 -1 -121 35
-194 152 -310 100 -99 196 -167 451 -315 292 -171 357 -217 470 -338 129 -138
234 -348 264 -527 3 -19 8 -46 11 -60 3 -14 8 -65 12 -114 l6 -88 -39 5 c-22
4 -91 18 -154 33 -63 14 -126 28 -140 30 -14 3 -50 10 -80 17 l-55 12 -21 85
c-12 47 -23 91 -25 99 -2 8 -23 54 -47 103 -39 83 -93 165 -140 214 l-20 21
63 93 c90 132 78 142 -64 50 -89 -58 -94 -60 -110 -43 -69 77 -340 190 -470
197 -21 1 -26 9 -38 56 -7 30 -14 66 -17 80 -2 14 -11 59 -19 100 -9 41 -27
126 -41 188 -25 120 -30 132 -47 115 -9 -9 -63 -237 -84 -355 -8 -44 -44 -190
-47 -192 -2 -1 -49 -17 -105 -35 -111 -36 -231 -99 -304 -161 -26 -22 -51 -40
-54 -40 -4 0 -24 14 -45 30 -21 17 -40 30 -44 30 -3 0 -36 20 -73 45 -113 76
-115 59 -11 -101 68 -105 79 -128 66 -135 -28 -16 -111 -167 -144 -264 -19
-57 -18 -54 -28 -117 -9 -51 -17 -56 -106 -71 -14 -3 -99 -21 -190 -41 -91
-20 -176 -39 -190 -42 -14 -3 -38 -8 -54 -10 l-29 -6 6 84 c28 380 188 674
478 880 51 37 288 180 384 232 11 6 34 20 50 31 106 67 171 110 175 115 3 3
30 25 60 50 111 90 185 190 209 280 3 14 6 61 5 105 0 71 -4 88 -37 155 -20
41 -46 87 -59 102 -13 15 -37 45 -55 67 -45 55 -144 118 -222 141 -84 26 -167
30 -257 14z m-180 -208 c117 -19 209 -110 235 -231 3 -16 6 -64 5 -105 0 -63
-5 -87 -30 -140 -49 -104 -109 -155 -306 -261 -62 -33 -129 -70 -148 -82 l-35
-20 30 33 c17 19 36 40 43 48 6 7 32 41 56 75 151 213 164 386 35 501 -63 58
-105 73 -306 111 -10 2 -30 4 -45 4 -16 1 -28 6 -28 11 0 5 3 9 8 8 7 -2 119
11 152 17 220 42 251 44 334 31z m1951 0 c28 -4 61 -9 75 -12 14 -2 36 -6 50
-9 13 -3 40 -7 60 -10 19 -3 60 -9 90 -14 30 -5 58 -7 63 -4 4 2 7 0 7 -5 0
-5 -39 -15 -87 -22 -115 -18 -104 -16 -165 -36 -140 -46 -220 -153 -213 -284
4 -57 17 -99 63 -188 31 -61 121 -184 164 -223 15 -14 28 -28 28 -32 0 -3 -35
14 -77 37 -43 24 -123 67 -177 97 -189 102 -271 209 -281 364 -9 140 63 274
174 321 68 29 120 34 226 20z m-1040 -870 c3 -27 7 -51 9 -55 2 -3 20 -85 40
-181 20 -96 52 -251 71 -343 19 -93 35 -173 35 -178 0 -5 -17 -20 -39 -34 -30
-20 -49 -25 -85 -23 -44 3 -46 5 -47 33 0 44 -1 818 0 829 2 22 10 -3 16 -48z
m255 -363 c81 -22 164 -59 237 -105 l65 -41 -48 -30 c-26 -16 -99 -63 -161
-104 -62 -40 -120 -76 -127 -79 -13 -5 -22 21 -32 91 -2 11 -8 40 -13 65 -17
73 -21 93 -27 125 -3 17 -9 47 -14 68 l-8 38 37 -7 c20 -3 61 -12 91 -21z
m-435 -22 c-4 -14 -16 -69 -27 -121 -11 -52 -21 -99 -22 -105 -1 -5 -8 -36
-15 -67 l-12 -57 -65 42 c-35 23 -101 65 -145 93 l-80 52 43 35 c55 45 161
103 240 131 82 30 91 29 83 -3z m-303 -264 c114 -75 209 -140 211 -145 2 -4
-3 -33 -12 -64 l-16 -58 -210 211 c-116 116 -203 207 -195 203 8 -5 108 -71
222 -147z m1120 71 c-27 -40 -93 -140 -146 -221 -74 -113 -100 -147 -114 -144
-56 16 -78 20 -91 18 -7 -1 -11 3 -9 9 4 14 390 407 401 409 4 1 -14 -32 -41
-71z m85 -105 c59 -87 88 -141 115 -218 27 -76 43 -145 33 -145 -4 0 -82 16
-173 36 -92 20 -180 38 -197 41 -16 3 -33 8 -37 11 -8 8 200 332 212 332 4 0
25 -26 47 -57z m-1298 -146 c44 -70 81 -131 81 -135 0 -5 -6 -9 -12 -9 -7 -1
-56 -11 -108 -23 -104 -23 -189 -40 -200 -40 -12 0 7 72 40 159 34 87 99 197
110 184 4 -4 44 -65 89 -136z m709 -86 c56 -28 114 -89 143 -149 33 -69 32
-207 -1 -276 -51 -107 -153 -171 -276 -175 -106 -3 -194 34 -261 109 -52 59
-79 193 -58 290 20 93 90 172 190 214 58 24 204 17 263 -13z m-559 -150 c20
-31 30 -57 27 -72 -3 -13 -5 -33 -5 -44 -1 -20 -8 -20 -440 -20 -242 0 -439 1
-437 2 1 1 56 14 122 28 65 14 153 33 194 42 41 8 84 17 95 18 11 2 40 8 65
15 47 13 56 15 111 24 31 6 232 52 235 55 1 1 16 -21 33 -48z m1648 -142 c-15
-4 -44 -10 -64 -13 -21 -3 -81 -14 -133 -26 -146 -32 -282 -60 -315 -66 -16
-2 -37 -7 -45 -9 -8 -2 -31 -7 -50 -10 -19 -3 -51 -10 -70 -15 -19 -5 -55 -12
-80 -15 -25 -4 -47 -9 -49 -11 -10 -10 -51 67 -47 88 3 13 5 38 5 55 l1 33
428 2 c235 2 431 1 437 -1 5 -3 -3 -8 -18 -12z m-352 -166 c-20 -115 -100
-284 -176 -366 l-26 -29 -111 171 c-97 147 -129 201 -106 179 3 -3 44 3 92 13
48 11 101 22 117 25 17 3 48 9 70 14 22 5 56 12 75 15 19 3 36 8 39 11 2 2 11
4 18 4 11 0 12 -9 8 -37z m-1503 -23 c81 -16 149 -30 152 -30 3 0 -14 -29 -37
-65 -23 -36 -65 -101 -93 -145 l-52 -80 -34 52 c-43 66 -81 148 -102 218 -21
71 -21 93 2 86 9 -3 83 -19 164 -36z m311 -64 c16 -4 27 -11 25 -16 -4 -11
-418 -429 -418 -422 0 3 15 28 34 56 18 28 79 123 136 211 129 201 123 195
163 185 18 -4 45 -11 60 -14z m813 -243 c111 -112 201 -203 199 -203 -2 0 -75
46 -162 103 -87 57 -191 124 -230 150 -40 26 -73 49 -73 52 0 7 20 94 26 114
6 18 0 23 240 -216z m-512 106 c9 -8 15 -859 6 -859 -3 0 -13 39 -23 88 -10
48 -29 139 -42 202 -14 63 -27 124 -29 135 -3 11 -14 65 -26 120 -12 55 -24
111 -27 125 -2 14 -8 41 -13 60 -24 92 -23 98 17 123 30 19 47 23 83 19 25 -2
49 -8 54 -13z m-215 -121 c6 -29 13 -62 15 -73 12 -57 47 -212 52 -228 5 -15
2 -17 -23 -11 -68 16 -184 70 -261 120 l-84 55 139 94 c76 52 141 94 144 94 3
1 11 -23 18 -51z m616 -51 c77 -49 146 -96 154 -103 30 -28 -178 -133 -331
-167 -38 -8 -68 -12 -68 -9 0 4 5 25 10 47 5 22 12 56 15 75 3 19 10 51 15 70
5 19 11 51 14 71 3 20 7 42 10 50 2 8 7 27 10 42 4 18 11 25 19 21 7 -4 75
-48 152 -97z"/>
<path d="M2521 2262 c-74 -13 -135 -87 -140 -170 -7 -125 125 -221 241 -175
76 29 118 90 118 168 0 115 -103 198 -219 177z"/>
</g>
</svg>
